<svg width="943" height="471" viewBox="0 0 943 471" fill="none" xmlns="http://www.w3.org/2000/svg">
<g filter="url(#filter0_d_60_70)">
<path d="M114.357 135.02C112.558 135.083 110.559 135.152 108.574 135.622C107.974 135.643 106.996 136.277 106.624 137.091C105.295 139.138 105.904 145.121 107.766 146.857C109.834 148.786 112.089 150.308 114.866 149.611C117.051 149.134 119.442 148.851 121.841 148.767C123.64 148.704 124.281 149.882 123.758 152.102C121.983 158.568 120.208 165.034 118.425 171.3C116.299 179.179 113.966 186.865 112.446 194.923C112.123 197.136 111.138 197.57 109.297 196.434C107.256 195.304 106.271 195.739 105.741 197.759C104.737 203.397 107.65 212.301 111.545 214.967C113.393 216.303 114.778 215.854 116.521 214.192C118.636 211.717 119.723 208.477 120.404 205.051C120.941 203.231 121.271 201.219 121.601 199.206C125.426 182.662 130.471 166.677 135.103 150.305C135.997 147.272 137.534 145.417 140.111 144.727C144.852 142.96 149.601 141.394 154.107 138.635C158.806 135.669 163.72 133.096 168.412 129.93C173.304 126.757 178.631 124.57 182.868 119.819C183.832 118.785 185.211 118.137 186.589 117.488C187.374 117.061 188.339 116.026 189.194 117.597C189.408 117.99 189.057 119.403 188.685 120.217C187.377 122.864 185.862 125.318 184.746 127.759C178.948 139.368 173.563 151.363 168.378 163.352C163.015 175.947 158.264 188.92 154.742 202.652C153.854 205.884 153.173 209.31 152.492 212.736C151.646 217.168 153.364 220.51 155.867 223.425C157.329 225.175 159.321 224.905 161.057 223.044C164.143 219.734 166.602 215.645 168.661 211.571C170.348 208.31 170.128 207.718 167.617 204.603C166.376 203.446 166.135 202.254 166.286 200.848C166.451 199.841 166.815 198.828 166.98 197.821C170.166 185.903 174.58 174.742 179.406 163.967C185.528 150.145 191.649 136.323 198.812 123.665C205.981 111.208 212.331 98.178 219.514 86.12C221.215 83.2589 223.13 80.7906 224.831 77.9294C227.283 73.6413 227.908 68.6164 222.8 65.5928C222.593 65.3999 222.393 65.4069 222.186 65.214C220.731 63.6638 219.518 63.306 217.61 65.9742C216.845 67.0015 216.287 68.2217 215.53 69.4489C212.664 73.3513 210.826 78.0183 207.761 81.9276C203.359 87.6848 198.137 92.8702 192.9 97.6558C182.042 107.641 169.887 114.869 157.725 121.898C154.976 123.395 152.212 124.492 149.456 125.789C148.47 126.224 147.478 126.459 146.685 126.686C145.493 126.928 144.652 125.757 144.81 124.551C145.175 123.537 145.539 122.524 145.711 121.717C148.444 114.017 152.219 107.482 156.606 101.325C158.514 98.6565 160.223 95.9953 161.517 92.9482C161.889 92.1348 162.447 90.9145 162.219 90.122C161.886 86.3313 160.19 83.5888 157.335 82.0875C154.881 80.5723 153.338 82.2271 151.809 84.2818C151.43 84.8954 150.844 85.3161 150.665 85.9227C145.783 95.0987 140.279 103.696 136.837 114.022C135.385 118.276 133.533 122.543 132.287 126.989C131.214 130.629 129.085 132.704 126.3 133.202C122.324 133.941 118.582 135.673 114.357 135.02ZM262.196 185.187C262.364 185.181 262.364 185.181 262.532 185.175C262.602 187.19 262.673 189.205 262.749 191.387C262.966 197.599 264.671 203.087 267.712 208.36C270.419 213.645 274.854 215.507 279.885 215.164C285.582 214.629 290.699 211.928 295.271 208.07C295.433 207.897 295.745 207.213 295.572 207.051C295.386 206.553 295.033 206.061 294.685 205.737C293.492 205.275 292.317 205.316 291.154 205.693C288.977 205.937 286.812 206.517 284.647 207.097C278.655 208.819 274.711 206.603 272.474 200.293C270.793 195.477 270.125 190.793 270.117 185.751C270.212 178.855 270.476 171.954 272.082 165.005C272.636 161.624 273.874 158.555 275.801 155.966C279.822 150.783 283.149 144.951 285.966 138.969C288.476 133.838 290.477 128.557 291.789 122.796C292.199 120.092 292.615 117.556 292.185 114.881C291.714 111.031 288.963 109.278 285.971 110.223C284.975 110.594 284.315 110.954 283.487 111.319C282.498 111.858 281.635 111.215 280.934 110.399C280.748 109.901 280.563 109.404 280.203 108.744C277.851 103.951 273.589 102.251 268.257 103.614C265.091 104.397 262.109 105.677 259.314 107.456C250.603 113.139 242.958 120.467 235.66 128.118C231.928 131.947 228.56 136.603 225.013 140.929C222.438 144.213 219.689 147.335 217.456 150.775C213.446 156.295 209.778 161.97 206.278 167.64C200.22 177.097 195.859 186.999 192.535 197.706C190.725 203.652 189.761 209.738 190.488 216.1C190.929 219.111 192.151 220.413 194.855 220.823C196.036 220.95 197.385 221.07 198.549 220.694C203.029 219.024 207.51 217.355 211.44 214.36C217.164 209.789 223.067 205.549 228.629 201.152C232.403 198.499 236.165 195.51 239.585 192.364C245.934 186.427 252.821 181.48 258.817 175.051C259.945 173.666 261.815 174.273 261.88 176.12C262.153 179.137 262.091 182.165 262.196 185.187ZM273.064 120.928C272.781 122.451 272.533 124.981 272.118 127.517C271.13 132.931 269.123 138.044 267.105 142.822C265.41 147.251 263.374 151.525 263.035 156.244C263.07 157.251 262.763 158.102 262.961 158.936C263.906 161.929 262.627 163.823 261.001 165.392C253.83 171.863 247.007 178.657 239.304 184.305C235.536 187.126 231.774 190.115 228.012 193.105C222.288 197.675 216.384 201.916 210.463 205.653C207.841 207.593 205.063 209.876 202.082 211.157C199.095 212.269 197.717 211.309 198.103 207.933C198.778 203.203 199.633 198.802 201.496 194.367C205.648 183.295 210.825 172.692 217.716 163.038C229.086 146.839 241.857 132.272 257.067 120.142C259.023 118.393 260.997 117.147 262.965 115.734C263.949 115.027 264.95 114.824 265.946 114.453C270.913 112.262 272.818 113.877 273.064 120.928ZM385.447 103.794C385.378 101.826 385.852 100.018 384.575 99.3465C383.112 98.502 381.7 99.0887 380.485 100.206C379.801 101.125 379.283 101.681 378.599 102.6C376.904 105.346 375.023 107.919 373.328 110.665C364.007 125.856 354.675 140.69 344.422 154.84C338.954 162.374 334.034 170.248 329.307 178.473C327.272 181.768 325.065 185.248 322.673 188.555C321.995 189.654 321.145 190.937 320.046 190.259C319.146 190.111 319.275 188.674 319.243 187.779C319.033 186.891 319.008 186.176 318.971 185.102C318.088 170.088 318.631 154.845 319.173 139.602C319.287 132.612 319.395 125.444 318.8 118.659C318.712 116.154 318.267 113.662 318.001 111.164C317.587 109.567 316.994 107.975 316.235 106.748C315.481 105.7 314.562 105.015 313.482 104.874C311.317 104.412 309.387 105.554 308.037 107.93C306.508 110.312 305.516 112.675 306.868 115.493C307.825 117.251 308.782 119.009 308.863 121.334C309.117 123.475 309.377 125.794 309.279 128.126C310.02 144.22 308.794 160.382 308.992 176.316C308.947 185.273 309.432 194.033 310.459 202.952C310.67 203.84 310.707 204.914 310.917 205.802C312.344 210.767 318.656 211.98 321.226 208.666C322.761 206.463 324.833 204.241 326.362 201.86C329.241 197.102 332.292 192.16 335.171 187.402C341.631 177.505 347.364 167.275 354.188 157.543C364.767 142.487 374.785 126.734 383.321 109.6C384.326 107.594 385.336 105.768 385.447 103.794ZM398.545 210.348C400.351 210.485 403.108 209.188 406.078 208.283C407.863 207.821 410.661 207.723 410.364 204.932C410.28 202.533 407.468 202.231 405.641 201.495C404.827 201.123 403.828 201.158 402.828 201.193C400.823 201.062 398.831 201.332 396.818 201.002C392 200.57 389.09 197.47 388.295 191.894C388.011 189.503 388.128 187.097 388.044 184.698C387.753 182.107 388.89 180.266 390.854 179.197C391.646 178.969 392.232 178.549 393.017 178.121C404.222 172.326 414.164 164.775 423.444 155.445C431.56 147.157 438.421 137.311 443.02 125.744C445.216 119.864 446.599 113.612 445.769 107.037C444.89 99.0624 439.711 94.0401 432.929 94.6771C429.146 95.2095 425.818 97.3269 422.696 99.6373C412.554 107.196 404.101 117.297 397.09 128.549C389.499 140.421 383.964 153.822 380.868 168.339C380.009 172.371 378.273 174.233 374.903 175.151C369.755 176.732 364.82 178.705 359.41 178.494C357.604 178.357 356.226 179.005 355.075 180.446C353.918 181.688 353.367 183.108 353.63 184.9C353.893 186.692 355.12 187.449 356.54 188C358.567 188.73 360.558 188.46 362.557 188.39C366.555 188.251 370.724 187.304 374.687 186.165C376.672 185.696 377.699 186.461 378.183 188.845C378.445 190.637 378.515 192.636 378.778 194.428C379.131 198.818 380.863 202.56 383.959 205.254C387.882 208.719 392.535 210.157 398.545 210.348ZM435.515 111.397C435.805 113.989 435.096 116.615 434.381 119.041C432.061 127.127 428.108 134.27 423.321 140.44C416.632 149.479 408.674 156.561 399.675 162.479C397.918 163.741 395.955 164.81 393.784 165.687C392.406 166.335 390.937 164.385 391.48 162.765C392.547 158.926 393.614 155.086 395.294 151.625C400.328 141.043 406.389 131.226 413.891 122.559C418.314 117.401 423.35 112.622 428.4 108.243C428.993 108.023 429.379 107.609 429.971 107.388C433.306 105.471 435.361 107 435.515 111.397ZM559.998 284.102C567.884 281.701 574.749 275.44 579.309 269.082C589.1 255.28 589.111 240.402 593.576 226.255C596.116 217.842 597.009 207.893 599.182 199.139C602.275 186.279 604.819 172.907 607.546 159.706C607.997 157.388 608.453 155.246 610.527 153.757C611.551 152.659 612.411 151.92 612.349 150.151C612.153 149.627 613.196 149.059 613.525 148.339C616.598 145.044 619.854 141.919 623.678 139.838C625.062 138.904 627.002 138.659 627.281 136.524C625.872 136.75 624.299 137.336 622.542 137.752C620.444 138.534 618.743 140.541 617.018 141.841C616.322 142.22 616.164 142.757 615.292 143.141C613.2 144.1 611.388 142.923 611.478 140.441C611.587 138.489 611.873 136.531 612.159 134.572C612.895 130.296 613.814 126.191 614.544 121.737C616.005 112.831 616.568 103.602 618.559 94.6768C618.99 91.828 619.776 88.9668 620.208 86.118C620.494 84.1598 620.609 82.3847 620.004 80.2805C619.393 77.9995 615.744 74.939 613.975 75.0007C611.675 75.081 611.023 76.6978 610.188 78.1438C610.024 78.5038 609.866 79.0406 609.695 79.2237C605.513 86.2769 600.966 92.9887 596.058 99.536C591.309 105.546 586.749 111.904 581.994 117.738C576.245 125.554 569.771 132.865 562.387 139.498C559.143 142.977 555.698 145.754 551.337 147.677C549.075 148.819 547.989 148.148 546.841 145.709C544.93 141.702 544.239 137.121 544.432 132.51C544.686 114.436 549.431 98.1534 558.458 82.784C559.445 80.6242 560.085 78.6537 559.998 76.1772C559.961 75.1159 559.57 74.0669 558.661 73.3902C557.575 72.7197 556.489 72.0492 555.226 71.3848C553.42 70.3853 552.371 70.7761 551.195 72.5883C550.682 73.1375 550.17 73.6867 550.018 74.4004C548.093 80.1351 545.265 85.37 543.346 91.2816C541.3 98.6144 539.424 105.764 537.549 112.914C535.655 119.533 535.011 126.463 535.252 133.362C535.285 139.382 536.361 144.835 539.212 150.403C540.549 153.19 542.209 155.08 544.57 156.769C546.944 158.811 549.793 159.243 552.415 158.266C553.989 157.68 555.386 157.099 556.776 156.343C560.234 153.919 563.52 151.679 566.612 148.915C573.484 142.83 578.708 135.209 584.86 128.796C585.555 128.417 585.536 127.886 585.872 127.343C586.859 125.184 588.383 123.182 590.084 121.175C593.138 117.349 596.546 113.51 598.881 109.355C601.24 105.908 603.965 102.802 606.331 99.5315C606.483 98.8177 607.172 98.2623 608.081 98.939C608.441 99.1036 608.642 99.805 608.661 100.336C608.698 101.397 608.381 102.471 608.418 103.532C607.312 112.426 606.377 121.137 605.264 129.854C604.236 135.912 603.025 141.799 602.173 147.85C601.741 150.699 600.577 152.865 598.315 154.006C593.784 156.113 590.717 159.585 587.272 162.362C582.101 166.439 576.936 170.693 572.308 175.105C564.754 181.922 557.041 189.275 550.761 197.11C532.454 220.596 525.502 239.613 525.139 259.639C525.054 262.298 526.112 267.22 528.187 270.867C532.009 278.88 537.861 284.166 547.128 285.791C551.758 286.515 555.966 285.305 559.998 284.102ZM558.603 274.587C553.535 276.535 549.674 277.555 545.208 276.471C540.218 275.583 536.746 272.516 535.335 267.607C530.748 252.89 537.158 238.674 543.771 225.16C550.219 212.006 549.303 211.153 561.899 196.544C564.795 193.255 567.325 189.625 570.77 186.848C578.685 180.195 583.372 172.416 591.892 167.868C588.94 169.565 599.782 160.508 598.539 165.511C598.12 168.713 597.536 172.276 596.586 175.497C593.536 189.595 590.303 203.522 586.716 217.462C581.766 238.002 578.497 266.099 558.603 274.587ZM685.059 116.691C684.962 113.893 684.857 110.895 684.759 108.097C684.717 106.897 684.661 105.298 684.034 104.52C681.724 101.398 681.177 97.215 679.852 93.659C677.886 88.9248 675.011 86.8238 671.013 86.9634C667.415 87.0891 664.045 88.0072 660.931 90.5175C647.475 100.593 637.363 114.755 631.202 133.181C629.578 138.241 628.146 143.094 626.515 147.954C624.704 153.42 623.501 159.066 623.11 165.083C622.555 172.106 623.006 179.295 624.45 186.249C626.363 195.188 633.659 203.538 642.612 202.025C653.556 200.242 662.127 193.538 669.402 184.079C676.862 174.212 681.24 162.052 683.371 148.57C684.807 138.113 685.429 127.285 685.059 116.691ZM632.577 172.557C632.495 158.751 634.868 146.461 639.88 135.279C645.065 123.291 651.905 112.846 660.62 104.537C662.556 102.668 664.913 101.385 667.483 100.495C668.276 100.267 669.089 100.639 669.331 101.831C669.587 103.423 669.836 104.815 669.891 106.414C669.817 110.019 670.535 113.396 672.439 116.332C674.122 118.674 674.826 121.651 674.538 124.863C673.999 138.09 672.661 151.345 667.669 163.127C663.063 174.494 655.733 182.355 646.706 187.473C645.728 188.107 644.728 188.142 643.743 188.577C639.209 190.536 634.734 188.491 633.242 180.138C632.745 177.354 632.647 174.556 632.577 172.557ZM771.995 104.808C772.215 111.107 771.099 117.453 769.792 123.806C764.282 152.092 743.843 179.753 714.857 187.072C713.153 187.514 711.441 187.765 709.717 187.634C706.458 187.366 704.299 185.721 703.211 181.937C702.565 179.857 701.919 177.777 701.648 175.493C700.598 167.312 701.45 158.873 702.881 150.605C705.016 140.592 707.737 130.942 712.591 122.172C715.445 116.339 718.885 110.867 722.325 105.396C723.042 104.033 723.957 102.854 724.088 101.13C724.527 97.2921 721.952 94.7064 718.945 96.1492C716.503 97.3812 714.47 99.3634 713.03 101.898C708.893 109.305 704.756 116.712 701.6 124.849C696.169 138.99 693.43 153.611 692.812 168.73C692.111 192.453 700.468 201.908 724.504 195.145C742.498 190.503 760.625 173.243 769.365 155.355C774.554 145.235 778.424 130.193 779.933 118.674C781.364 110.406 781.084 102.388 780.607 94.1871C780.336 91.9031 779.677 89.4416 778.089 87.777C777.095 86.665 775.377 86.725 774.66 88.0879C773.391 90.0434 772.701 92.1698 772.59 94.467C772.328 97.9163 772.257 101.359 771.995 104.808ZM787.168 183.921C787.22 185.392 787.087 186.869 787.139 188.34C787.254 191.65 788.448 194.186 790.363 196.329C791.892 197.932 793.554 198.058 795.367 197.259C797.364 196.453 797.858 194.778 797.965 192.565C798.069 185.013 799.277 177.422 800.301 169.838C802.659 153.001 808.01 137.533 815.042 122.743C818.299 115.817 822.887 110.133 828.624 105.698C839.02 97.6026 850.45 92.7847 862.72 90.8834C864.184 90.6481 865.642 90.229 867.101 89.8098C868.191 89.4035 868.685 87.7292 867.911 86.6516C866.915 84.4771 865.215 83.2476 863.179 82.9505C860.776 82.6662 858.391 82.9336 856.014 83.3848C848.697 84.745 841.634 88.1215 834.565 91.3142C827.313 94.5133 820.663 99.1642 815.187 105.799C814.661 106.554 814.129 107.125 813.412 107.702C812.88 108.273 812.183 109.402 811.238 108.699C810.857 108.344 810.996 107.05 811.154 106.308C811.477 105.008 811.8 103.708 812.123 102.408C812.446 101.108 812.775 99.9919 812.73 98.7047C812.811 95.7561 810.863 92.6942 808.834 92.581C805.695 92.3224 804.091 93.8513 803.459 96.8192C803.307 97.745 803.155 98.6709 802.997 99.4128C800.175 113.504 797.721 127.582 795.45 141.654C793.92 150.545 792.567 159.245 790.104 167.8C788.812 173.001 787.711 178.378 787.168 183.921ZM221.775 279.903C221.429 269.997 216.833 266.852 212.335 266.536C208.553 266.432 201.228 273.064 200.929 278.034C200.038 286.33 186.672 316.078 183.357 322.57C178.506 332.421 172.93 341.826 168.323 351.904C159.743 369.915 154.022 381.922 145.702 400.632C140.47 413.094 141.468 407.864 135.764 420.342C135.333 421.538 134.675 422.978 134.489 424.401C133.288 430.583 134.193 436.219 137.896 440.812C140.841 444.016 142.989 444.649 145.712 441.484C149.776 436.147 154.556 431.021 154.243 422.059C154.161 419.7 155.249 417.064 156.119 414.909C161.683 398.421 165.069 387.203 172.578 372.3C185.165 347.302 193.482 321.744 208.51 299.022C210.079 296.605 214.785 289.357 216.353 286.941C217.686 284.533 221.63 282.506 221.775 279.903ZM222.291 329.371C223.107 335.547 221.868 340.193 220.822 344.632C219.047 351.098 217.072 357.571 215.296 364.036C211.367 377.582 207.237 391.134 203.307 404.68C200.43 413.986 197.347 423.099 194.47 432.405C192.68 438.471 193.784 441.434 198.279 444.079C199.713 445.03 200.906 444.788 202.284 444.139C204.048 443.077 204.785 441.25 205.521 439.424C207.167 434.963 209.433 431.082 212.112 427.586C212.877 426.559 213.435 425.339 214.199 424.311C220.653 414.28 226.486 403.67 233.554 394.018C237.184 389.088 240.607 383.965 244.031 378.843C251.077 368.591 258.544 358.924 266.646 350.236C268.961 347.754 271.896 345.85 274.425 343.761C275.982 342.505 277.423 343.656 277.507 346.054C277.783 348.246 277.46 350.459 276.93 352.478C275.404 360.337 273.264 367.816 270.517 375.116C266.51 386.463 262.297 397.617 258.29 408.963C256.466 414.03 255.262 419.676 253.845 424.928C252.95 427.961 253.648 430.739 255.716 432.668C257.785 434.597 261.19 434.678 262.933 433.016C265.447 430.527 267.755 427.845 266.802 423.475C266.339 421.69 265.877 419.905 266.407 417.886C267.095 414.66 267.768 411.034 269.056 407.787C272.34 398.667 276.023 389.533 279.5 380.206C281.868 373.519 284.436 366.825 286.604 360.146C288.421 354.879 289.425 349.24 289.423 343.437C289.529 335.028 286.805 331.521 279.154 330.187C276.535 329.678 274.164 330.562 271.814 332.045C265.172 336.679 258.964 342.299 253.798 349.084C247.667 356.902 241.75 365.114 235.626 373.133C233.711 375.601 231.603 378.276 229.895 380.937C226.658 385.653 223.213 390.176 219.776 394.899C219.397 395.513 218.805 395.733 218.391 395.348C217.977 394.962 217.956 394.362 217.942 393.962C218.451 391.343 219.153 388.517 219.862 385.89C222.167 377.405 224.872 368.905 227.377 360.413C228.981 354.753 230.777 348.887 232.58 343.221C234.198 337.961 235.401 332.316 235.606 326.705C235.75 325.099 235.694 323.5 235.631 321.701C235.368 319.909 234.527 318.738 233.293 317.78C230.225 315.886 226.848 316.604 224.968 320.072C223.081 323.34 221.793 326.587 222.291 329.371ZM356.936 402.012C357.104 402.007 357.104 402.007 357.272 402.001C357.343 404.015 357.413 406.03 357.489 408.213C357.706 414.425 359.411 419.913 362.453 425.186C365.159 430.471 369.594 432.333 374.625 431.989C380.322 431.454 385.439 428.754 390.011 424.896C390.173 424.722 390.486 424.039 390.312 423.877C390.126 423.379 389.773 422.887 389.425 422.563C388.233 422.1 387.057 422.142 385.894 422.518C383.717 422.762 381.552 423.342 379.387 423.922C373.395 425.644 369.452 423.429 367.214 417.119C365.533 412.303 364.865 407.619 364.857 402.576C364.952 395.681 365.216 388.779 366.822 381.831C367.376 378.45 368.614 375.381 370.541 372.792C374.563 367.608 377.889 361.777 380.706 355.795C383.216 350.664 385.217 345.383 386.529 339.622C386.939 336.918 387.355 334.382 386.925 331.707C386.454 327.857 383.704 326.104 380.711 327.049C379.715 327.42 379.055 327.779 378.227 328.144C377.238 328.683 376.375 328.041 375.674 327.225C375.488 326.727 375.303 326.229 374.944 325.569C372.591 320.777 368.329 319.076 362.997 320.439C359.831 321.222 356.85 322.503 354.054 324.282C345.343 329.965 337.698 337.292 330.401 344.944C326.668 348.772 323.3 353.429 319.753 357.755C317.178 361.039 314.43 364.161 312.196 367.601C308.186 373.12 304.518 378.796 301.018 384.465C294.96 393.922 290.599 403.825 287.275 414.531C285.465 420.478 284.501 426.563 285.228 432.926C285.669 435.936 286.891 437.238 289.595 437.648C290.776 437.775 292.125 437.896 293.289 437.519C297.769 435.85 302.25 434.181 306.18 431.186C311.904 426.615 317.807 422.374 323.369 417.978C327.143 415.324 330.905 412.335 334.325 409.19C340.674 403.253 347.561 398.305 353.557 391.876C354.685 390.492 356.555 391.099 356.62 392.946C356.893 395.962 356.831 398.99 356.936 402.012ZM367.804 337.754C367.521 339.277 367.274 341.807 366.858 344.343C365.87 349.757 363.863 354.87 361.845 359.647C360.15 364.077 358.114 368.351 357.775 373.07C357.81 374.077 357.504 374.928 357.701 375.762C358.646 378.755 357.367 380.648 355.741 382.218C348.57 388.688 341.747 395.483 334.044 401.131C330.276 403.952 326.514 406.941 322.752 409.93C317.028 414.501 311.124 418.741 305.203 422.478C302.581 424.419 299.803 426.701 296.822 427.982C293.835 429.095 292.457 428.135 292.843 424.759C293.519 420.029 294.374 415.628 296.236 411.192C300.388 400.121 305.565 389.518 312.456 379.863C323.826 363.665 336.597 349.098 351.807 336.968C353.763 335.219 355.737 333.973 357.705 332.559C358.689 331.853 359.691 331.649 360.686 331.279C365.653 329.088 367.558 330.702 367.804 337.754ZM484.88 350.464C484.452 348.069 484.196 345.669 483.769 343.274C482.413 334.028 475.511 328.59 467.836 330.579C465.109 331.362 462.395 332.49 459.865 333.955C455.983 336.156 452.831 339.536 449.14 342.246C447.794 343.154 446.467 344.577 445.312 345.994C442.67 349.184 440.205 352.54 437.379 355.393C435.051 357.711 432.9 360.196 431.111 363.184C425.721 371.461 419.975 379.407 415.474 388.513C415.148 389.041 414.822 389.569 414.49 389.924C414.325 390.102 413.821 390.464 413.643 390.298C413.121 390.144 412.588 389.647 412.57 389.131C412.368 388.278 412.332 387.246 412.468 386.209C413.023 382.403 413.579 378.597 414.306 374.786C419.232 348.282 424.508 321.937 431.343 295.883C432.568 291.538 433.615 287.026 435.362 282.835C437.109 278.643 438.855 274.452 440.602 270.26C441.39 268.168 442.349 266.069 443.13 263.804C443.912 261.539 443.116 258.469 441.521 257.148C439.926 255.827 438.219 256.231 436.702 257.144C435.185 258.058 434.196 259.297 433.396 261.046C431.969 264.538 430.204 268.214 428.955 271.872C424.243 284.772 422.138 298.442 418.825 311.982C418.659 312.16 418.665 312.332 418.671 312.503C417.134 322.711 415.77 332.913 412.84 342.653C412.532 343.697 412.568 344.728 412.432 345.765C410.965 353.045 410.02 360.479 408.203 367.598C406.559 374.712 405.951 381.962 403.779 388.75C403.299 389.799 403.347 391.174 403.045 392.389C402.348 397.061 401.657 401.904 400.793 406.753C400.232 410.387 399.504 414.198 398.249 417.684C397.776 418.905 397.474 420.121 397.166 421.164C396.698 422.557 396.924 424.098 397.654 425.278C399.647 428.134 401.634 430.818 402.791 434.392C402.987 435.073 403.521 435.571 404.054 436.069C406.367 438.225 409.006 439.854 411.946 440.268C416.095 440.811 420.019 439.814 423.93 438.473C430.053 436.366 434.526 431.391 439.545 427.257C444.066 423.657 447.685 418.884 452.023 414.946C459.855 407.616 466.069 398.277 472.461 389.105C478.515 380.116 481.931 369.498 484.119 358.235C484.551 355.811 484.626 353.054 484.88 350.464ZM474.708 349.959C475.292 356.822 473.09 362.751 471.237 368.839C468.941 377.008 464.878 383.862 460.293 390.562C453.415 400.613 445.452 409.152 436.956 417.193C433.128 420.941 429.111 424.179 424.909 427.079C422.391 428.888 419.683 430.188 416.956 430.971C414.224 431.583 411.468 431.507 408.995 429.7C407.234 428.557 406.493 427.034 406.758 424.788C406.858 422.719 407.652 420.798 408.451 419.049C411.193 413.79 413.929 408.359 416.672 403.1C418.928 398.719 421.368 394.675 423.631 390.466C427.99 382.225 432.699 374.143 437.775 366.738C442.372 360.381 447.141 354.019 452.812 348.83C455.976 345.794 459.501 343.261 463.039 341.072C464.722 339.981 466.417 339.233 468.308 339.167C471.224 338.893 472.819 340.215 473.793 343.451C474.16 344.126 474.362 344.98 474.386 345.667C474.612 347.208 474.66 348.583 474.708 349.959ZM549.073 395.303C549.241 395.297 549.241 395.297 549.409 395.291C549.479 397.306 549.549 399.321 549.626 401.503C549.842 407.716 551.547 413.203 554.589 418.477C557.295 423.761 561.731 425.624 566.762 425.28C572.459 424.745 577.575 422.044 582.148 418.187C582.31 418.013 582.622 417.329 582.448 417.167C582.263 416.67 581.909 416.178 581.562 415.854C580.369 415.391 579.194 415.432 578.03 415.809C575.853 416.053 573.688 416.633 571.523 417.213C565.532 418.935 561.588 416.719 559.35 410.409C557.669 405.593 557.001 400.91 556.993 395.867C557.089 388.971 557.352 382.07 558.958 375.122C559.513 371.74 560.75 368.671 562.677 366.082C566.699 360.899 570.025 355.067 572.842 349.085C575.353 343.954 577.354 338.673 578.665 332.912C579.075 330.208 579.491 327.672 579.061 324.997C578.591 321.148 575.84 319.395 572.847 320.34C571.851 320.711 571.192 321.07 570.364 321.435C569.374 321.974 568.511 321.331 567.81 320.515C567.625 320.018 567.439 319.52 567.08 318.86C564.727 314.067 560.465 312.367 555.134 313.73C551.967 314.513 548.986 315.793 546.19 317.572C537.479 323.256 529.834 330.583 522.537 338.234C518.804 342.063 515.437 346.719 511.89 351.046C509.315 354.329 506.566 357.451 504.333 360.891C500.323 366.411 496.655 372.086 493.154 377.756C487.097 387.213 482.736 397.115 479.411 407.822C477.602 413.768 476.637 419.854 477.364 426.216C477.805 429.227 479.027 430.529 481.731 430.939C482.913 431.066 484.262 431.187 485.425 430.81C489.906 429.14 494.386 427.471 498.316 424.476C504.04 419.906 509.944 415.665 515.506 411.268C519.279 408.615 523.041 405.626 526.462 402.48C532.81 396.543 539.698 391.596 545.693 385.167C546.821 383.782 548.692 384.39 548.756 386.236C549.03 389.253 548.967 392.281 549.073 395.303ZM559.941 331.044C559.658 332.567 559.41 335.097 558.994 337.634C558.007 343.047 556 348.16 553.981 352.938C552.287 357.368 550.251 361.641 549.911 366.36C549.946 367.367 549.64 368.219 549.837 369.052C550.782 372.045 549.503 373.939 547.877 375.509C540.707 381.979 533.884 388.773 526.18 394.421C522.412 397.243 518.65 400.232 514.888 403.221C509.164 407.791 503.261 412.032 497.34 415.769C494.718 417.71 491.94 419.992 488.958 421.273C485.972 422.386 484.593 421.425 484.98 418.05C485.655 413.319 486.51 408.919 488.372 404.483C492.524 393.411 497.701 382.808 504.593 373.154C515.962 356.955 528.734 342.388 543.944 330.258C545.9 328.509 547.874 327.263 549.841 325.85C550.825 325.143 551.827 324.94 552.822 324.569C557.789 322.378 559.695 323.993 559.941 331.044ZM602.079 404.963C602.058 404.363 602.051 404.163 602.044 403.964C602.002 402.764 601.76 401.572 602.939 400.93C603.924 400.496 604.552 401.274 605.172 401.853C610.172 407.482 615.743 412.29 621.707 416.885C629.932 423.202 637.958 429.526 647.113 433.809C650.167 435.303 653.428 436.99 656.482 438.485C658.516 439.414 660.308 439.152 662.058 437.69C664.008 436.221 664.31 433.408 662.455 431.872C659.566 429.372 656.677 426.871 653.409 424.984C639.945 417.649 627.596 407.874 616.019 397.272C613.744 395.15 611.861 392.814 610.164 390.072C608.247 386.737 608.135 383.539 610.215 380.064C611.909 377.003 614.224 374.521 616.746 372.231C626.625 362.881 636.505 353.53 646.185 344.187C651.214 339.208 656.243 334.23 660.438 328.279C662.718 324.798 664.991 321.116 666.451 317.063C667.917 313.209 667.591 309.618 666.267 306.063C665.169 303.299 662.936 302.377 660.152 302.874C657.967 303.351 657.016 304.785 656.928 307.99C656.819 310.595 656.71 313.2 655.387 315.448C652.943 319.936 650.291 324.231 647.019 327.948C637.374 338.291 627.308 348.048 616.822 357.219C615.843 357.854 615.065 358.481 614.279 358.909C613.494 359.337 612.666 358.565 612.431 357.573C612.183 356.181 612.534 354.767 612.692 353.561C614.976 344.476 617.06 335.398 619.145 326.319C621.573 315.628 624.201 304.93 626.423 294.046C628.479 284.168 630.136 274.304 631.993 264.433C632.502 261.814 632.611 259.209 631.92 256.631C631.237 254.253 629.382 252.717 627.384 252.787C625.178 252.664 623.042 254.54 622.526 256.959C622.175 258.372 622.024 259.778 622.073 261.178C621.806 264.989 621.332 268.608 620.665 272.434C619.303 279.285 618.142 286.13 616.987 293.175C615.021 305.651 612.249 317.955 609.476 330.259C605.122 348.823 599.96 367.214 596.619 386.142C594.288 399.632 591.144 412.749 589.213 426.225C589.062 427.631 588.711 429.044 588.36 430.457C587.907 434.676 589.011 437.639 592.093 439.933C593.327 440.89 595.119 440.628 595.87 439.2C596.814 437.567 597.543 435.54 598.273 433.513C598.81 431.693 599.333 429.474 599.863 427.454C601.81 420.182 603.95 412.702 602.079 404.963ZM746.562 325.83C746.782 332.129 745.666 338.475 744.359 344.828C738.849 373.114 718.41 400.775 689.424 408.094C687.72 408.536 686.009 408.787 684.284 408.656C681.026 408.388 678.866 406.743 677.778 402.959C677.132 400.879 676.486 398.799 676.215 396.515C675.165 388.334 676.017 379.895 677.448 371.627C679.583 361.615 682.304 351.964 687.158 343.194C690.012 337.361 693.452 331.89 696.892 326.418C697.609 325.055 698.524 323.877 698.655 322.152C699.094 318.314 696.519 315.729 693.512 317.171C691.07 318.403 689.037 320.386 687.597 322.92C683.46 330.327 679.323 337.734 676.167 345.871C670.736 360.012 667.998 374.633 667.379 389.753C666.678 413.476 675.035 422.931 699.071 416.167C717.065 411.525 735.192 394.265 743.932 376.377C749.121 366.258 752.991 351.215 754.5 339.696C755.931 331.428 755.651 323.411 755.174 315.209C754.903 312.925 754.244 310.464 752.657 308.799C751.662 307.687 749.944 307.747 749.227 309.11C747.958 311.066 747.268 313.192 747.157 315.489C746.895 318.938 746.824 322.381 746.562 325.83ZM781.341 309.849C782.157 316.024 780.918 320.67 779.873 325.109C778.097 331.575 776.122 338.048 774.346 344.514C770.417 358.059 766.287 371.612 762.357 385.157C759.481 394.463 756.397 403.576 753.52 412.883C751.73 418.949 752.834 421.912 757.329 424.557C758.763 425.507 759.956 425.265 761.334 424.617C763.098 423.555 763.835 421.728 764.571 419.901C766.217 415.441 768.483 411.56 771.162 408.064C771.927 407.037 772.485 405.816 773.249 404.789C779.703 394.758 785.536 384.148 792.604 374.495C796.234 369.565 799.657 364.443 803.081 359.32C810.127 349.068 817.594 339.402 825.696 330.714C828.011 328.231 830.946 326.328 833.475 324.238C835.032 322.983 836.473 324.133 836.557 326.532C836.833 328.724 836.51 330.936 835.981 332.956C834.454 340.814 832.314 348.293 829.567 355.594C825.56 366.94 821.347 378.094 817.34 389.441C815.516 394.508 814.312 400.153 812.895 405.406C812 408.439 812.698 411.216 814.766 413.145C816.835 415.074 820.24 415.155 821.983 413.494C824.497 411.004 826.805 408.322 825.852 403.953C825.39 402.168 824.927 400.383 825.457 398.363C826.145 395.137 826.819 391.511 828.106 388.265C831.39 379.144 835.073 370.01 838.55 360.683C840.918 353.997 843.486 347.303 845.654 340.623C847.471 335.356 848.475 329.718 848.473 323.915C848.579 315.506 845.855 311.999 838.204 310.665C835.585 310.156 833.214 311.039 830.864 312.522C824.222 317.157 818.014 322.777 812.848 329.561C806.717 337.38 800.8 345.591 794.676 353.61C792.761 356.078 790.653 358.754 788.945 361.415C785.708 366.131 782.263 370.654 778.826 375.376C778.447 375.99 777.855 376.211 777.441 375.825C777.027 375.439 777.006 374.84 776.992 374.44C777.501 371.821 778.203 368.994 778.912 366.368C781.217 357.882 783.922 349.383 786.427 340.89C788.031 335.231 789.827 329.365 791.63 323.698C793.248 318.438 794.452 312.793 794.656 307.183C794.8 305.576 794.744 303.977 794.681 302.179C794.419 300.387 793.577 299.215 792.343 298.258C789.275 296.364 785.898 297.082 784.018 300.55C782.131 303.818 780.843 307.064 781.341 309.849Z" fill="#E35800"/>
</g>
<defs>
<filter id="filter0_d_60_70" x="93.9907" y="40.6939" width="792.705" height="429.748" filterUnits="userSpaceOnUse" color-interpolation-filters="sRGB">
<feFlood flood-opacity="0" result="BackgroundImageFix"/>
<feColorMatrix in="SourceAlpha" type="matrix" values="0 0 0 0 0 0 0 0 0 0 0 0 0 0 0 0 0 0 127 0" result="hardAlpha"/>
<feOffset dy="6"/>
<feGaussianBlur stdDeviation="3"/>
<feComposite in2="hardAlpha" operator="out"/>
<feColorMatrix type="matrix" values="0 0 0 0 0 0 0 0 0 0 0 0 0 0 0 0 0 0 0.25 0"/>
<feBlend mode="normal" in2="BackgroundImageFix" result="effect1_dropShadow_60_70"/>
<feBlend mode="normal" in="SourceGraphic" in2="effect1_dropShadow_60_70" result="shape"/>
</filter>
</defs>
</svg>
