<svg width="40" height="40" viewBox="0 0 40 40" fill="none" xmlns="http://www.w3.org/2000/svg">
<path d="M34.8946 26.1854C34.7741 28.5886 34.2253 30.7174 32.4718 32.4713C30.7184 34.2318 28.5901 34.7808 26.1874 34.8946L34.8946 26.1854ZM34.8946 26.1854C35.0351 23.7086 35.0351 16.2914 34.8946 13.8146V26.1854ZM34.5799 13.8295L34.5801 13.8324C34.72 16.2974 34.72 23.7026 34.5801 26.1676L34.58 26.1697C34.4615 28.5336 33.925 30.5722 32.2491 32.2486L32.2486 32.249C30.5729 33.9315 28.5351 34.468 26.1725 34.5799L26.1695 34.5801C23.7051 34.72 16.2949 34.72 13.8305 34.5801L13.8284 34.58C11.4655 34.4615 9.43345 33.9251 7.7505 32.2481C6.0683 30.572 5.53194 28.5337 5.42007 26.1705L5.4199 26.1676C5.28003 23.7026 5.28003 16.2907 5.41991 13.8257L5.42001 13.8236C5.53855 11.459 6.06859 9.42106 7.7505 7.74517C9.43332 6.06838 11.4718 5.53197 13.8275 5.42008L13.8276 5.42009L13.8305 5.41993C16.2949 5.28002 23.7051 5.28002 26.1695 5.41993L26.1716 5.42004C28.535 5.53856 30.5731 6.07514 32.2491 7.75144L32.2495 7.75187C33.9317 9.42805 34.4681 11.4663 34.5799 13.8295ZM28.9606 31.9875L28.9617 31.9871C30.3597 31.4264 31.434 30.3523 31.9882 28.9595C32.4031 27.9167 32.5526 26.1975 32.6051 24.5116C32.6431 23.2942 32.6306 22.0579 32.6204 21.058C32.6164 20.6633 32.6128 20.3054 32.6128 20C32.6128 19.6946 32.6164 19.3367 32.6204 18.9421C32.6306 17.9428 32.6431 16.7076 32.6051 15.4909C32.5526 13.8057 32.403 12.0868 31.9883 11.0409L31.9879 11.0398C31.4273 9.64147 30.3534 8.56688 28.9609 8.01259L28.96 8.01225C27.918 7.601 26.1997 7.45134 24.5142 7.39798C23.2878 7.35915 22.0428 7.37109 21.0391 7.38072C20.6533 7.38442 20.3031 7.38778 20.0033 7.38778C19.698 7.38778 19.3402 7.38415 18.9457 7.38016C17.9466 7.37004 16.7117 7.35753 15.4952 7.39546C13.8104 7.44799 12.0918 7.59762 11.0461 8.01245L11.045 8.0129C9.64701 8.57365 8.57268 9.64773 8.01852 11.0405L8.01818 11.0414C7.60704 12.0837 7.45741 13.8023 7.40406 15.4882C7.36525 16.7148 7.37719 17.9601 7.38681 18.964C7.39051 19.3499 7.39387 19.7002 7.39387 20C7.39387 20.3054 7.39025 20.6633 7.38625 21.0578C7.37613 22.0572 7.36363 23.2924 7.40155 24.5091C7.45407 26.1943 7.60367 27.9132 8.01839 28.9591L8.01883 28.9602C8.57944 30.3585 9.65327 31.4331 11.0458 31.9874L11.0467 31.9878C12.0887 32.399 13.807 32.5487 15.4925 32.602C16.7189 32.6408 17.9639 32.6289 18.9676 32.6193C19.3534 32.6156 19.7036 32.6122 20.0033 32.6122C20.3087 32.6122 20.6665 32.6158 21.061 32.6198C22.0601 32.63 23.295 32.6425 24.5115 32.6045C26.1963 32.552 27.9148 32.4024 28.9606 31.9875ZM12.6284 20C12.6284 15.9164 15.9208 12.6234 20.0033 12.6234C24.0859 12.6234 27.3783 15.9164 27.3783 20C27.3783 24.0836 24.0859 27.3766 20.0033 27.3766C15.9208 27.3766 12.6284 24.0836 12.6284 20ZM14.6889 20C14.6889 22.9322 17.0789 25.3156 20.0033 25.3156C22.9278 25.3156 25.3178 22.9322 25.3178 20C25.3178 17.0681 22.9348 14.6844 20.0033 14.6844C17.0719 14.6844 14.6889 17.0681 14.6889 20ZM29.4865 11.9938C29.4865 12.8165 28.8251 13.4728 28.0078 13.4728C27.1854 13.4728 26.5292 12.8114 26.5292 11.9938C26.5292 11.1769 27.1913 10.5147 28.0078 10.5147C28.8243 10.5147 29.4865 11.1769 29.4865 11.9938Z" stroke="white" stroke-width="0.63"/>
</svg>
