<svg width="50" height="50" viewBox="0 0 50 50" fill="none" xmlns="http://www.w3.org/2000/svg">
<path d="M37.2833 18.7917V19.625C37.2833 28.0167 30.9166 37.6333 19.2666 37.6333C15.8274 37.6408 12.4613 36.6413 9.58331 34.7583C10.0831 34.8262 10.5873 34.8568 11.0916 34.85C13.9425 34.8578 16.7132 33.9069 18.9583 32.15C17.6339 32.1305 16.3493 31.694 15.2871 30.9026C14.2249 30.1112 13.4392 29.0052 13.0416 27.7417C13.4362 27.8253 13.8384 27.8672 14.2416 27.8667C14.8048 27.8668 15.3654 27.7911 15.9083 27.6417C14.4738 27.3557 13.1832 26.5801 12.2575 25.4476C11.3317 24.3151 10.8283 22.8961 10.8333 21.4333V21.35C11.711 21.8403 12.695 22.1091 13.7 22.1333C12.3621 21.253 11.411 19.895 11.0408 18.3368C10.6706 16.7787 10.9094 15.138 11.7083 13.75C13.3002 15.7079 15.2863 17.3089 17.5375 18.4488C19.7887 19.5888 22.2547 20.2422 24.775 20.3667C24.6502 19.8937 24.5913 19.4057 24.6 18.9167C24.5531 17.6241 24.9056 16.3484 25.6097 15.2635C26.3138 14.1785 27.3352 13.3368 28.5348 12.8532C29.7344 12.3695 31.0539 12.2673 32.3137 12.5605C33.5734 12.8537 34.7122 13.528 35.575 14.4917C36.9931 14.2055 38.3535 13.6844 39.6 12.95C39.1273 14.4428 38.1217 15.7094 36.775 16.5083C38.033 16.335 39.2595 15.9813 40.4166 15.4583C39.578 16.7464 38.5171 17.875 37.2833 18.7917V18.7917Z" stroke="white" stroke-width="0.625" stroke-linecap="round" stroke-linejoin="round"/>
</svg>
