<svg width="50" height="50" viewBox="0 0 50 50" fill="none" xmlns="http://www.w3.org/2000/svg">
<path d="M29.9217 7.65L29.9224 7.65C31.603 7.64488 33.2825 7.73109 34.9536 7.90825C35.093 7.9272 35.2208 7.99586 35.3136 8.10163C35.407 8.20811 35.4584 8.34492 35.4584 8.48654V8.48666V14.2283C35.4584 14.383 35.3969 14.5314 35.2875 14.6408C35.1781 14.7502 35.0297 14.8117 34.875 14.8117H31.4767C30.4562 14.8117 29.7703 14.9778 29.3595 15.4339C28.9546 15.8836 28.88 16.5501 28.88 17.3533V20.6183V20.8683H29.13H34.6517H34.6518C34.7348 20.8683 34.8169 20.886 34.8926 20.9202C34.9682 20.9544 35.0357 21.0044 35.0905 21.0668L35.2783 20.9019L35.0905 21.0668C35.1453 21.1292 35.1861 21.2026 35.2102 21.282L35.4494 21.2093L35.2102 21.282C35.2344 21.3615 35.2413 21.4452 35.2305 21.5275L35.2304 21.528L34.4021 27.9442C34.3837 28.0846 34.3149 28.2135 34.2084 28.3069C34.1019 28.4003 33.9651 28.4517 33.8235 28.4517H33.8234H29.13H28.88V28.7017V41.5683C28.88 41.723 28.8186 41.8714 28.7092 41.9808L28.8859 42.1576L28.7092 41.9808C28.5998 42.0902 28.4514 42.1517 28.2967 42.1517H21.6667C21.512 42.1517 21.3636 42.0902 21.2542 41.9808C21.1448 41.8714 21.0834 41.723 21.0834 41.5683V28.7017V28.4517H20.8334H16.125C15.9703 28.4517 15.8219 28.3902 15.7125 28.2808C15.6031 28.1714 15.5417 28.023 15.5417 27.8683V21.4517C15.5417 21.297 15.6031 21.1486 15.7125 21.0392C15.8219 20.9298 15.9703 20.8683 16.125 20.8683H20.8334H21.0834V20.6183V16.7167C21.0834 13.8939 21.938 11.6325 23.4546 10.0779C24.9705 8.524 27.1734 7.65 29.9217 7.65ZM34.0418 13.6433L34.2917 13.6432V13.3933V9.23833V9.00912L34.0633 8.98927C33.1373 8.90874 31.6116 8.81666 29.9217 8.81666C27.5463 8.81666 25.6205 9.54889 24.2889 10.9213C22.9583 12.2928 22.25 14.2739 22.25 16.7167V21.4533C22.25 21.608 22.1886 21.7564 22.0792 21.8658C21.9698 21.9752 21.8214 22.0367 21.6667 22.0367H16.96H16.71V22.2867V27.0367V27.2867H16.96H21.6667C21.8214 27.2867 21.9698 27.3481 22.0792 27.4575C22.1886 27.5669 22.25 27.7153 22.25 27.87V40.7333V40.9833H22.5H27.4634H27.7134V40.7333V27.87C27.7134 27.7153 27.7748 27.5669 27.8842 27.4575C27.9936 27.3481 28.142 27.2867 28.2967 27.2867H33.09H33.3097L33.338 27.0688L33.953 22.3188L33.9895 22.0367H33.705L28.2955 22.0367C28.2954 22.0367 28.2953 22.0367 28.2951 22.0367C28.1408 22.0362 27.9928 21.9747 27.8838 21.8654C27.7747 21.756 27.7134 21.6078 27.7134 21.4533V17.3533C27.7134 16.5152 27.8186 15.593 28.3247 14.8823C28.8184 14.189 29.7332 13.645 31.475 13.645H31.4752L34.0418 13.6433Z" fill="white" stroke="black" stroke-width="0.5"/>
</svg>
