<svg width="50" height="50" viewBox="0 0 50 50" fill="none" xmlns="http://www.w3.org/2000/svg">
<mask id="path-1-inside-1_14_51" fill="white">
<path d="M13.603 35.2796C12.1679 33.4246 11.7427 32.8191 11.4154 32.2259L11.3472 32.0981C11.2744 31.9672 11.2032 31.8353 11.1337 31.7026C11.0434 31.5318 10.9616 31.3566 10.8886 31.1776C10.5841 30.4216 10.5264 29.7549 11.0112 29.1389C11.8599 28.0539 13.239 28.3602 14.401 29.3542C15.1501 29.9929 16.2666 31.1391 16.9474 31.9546C17.3937 32.4884 18.2074 33.0414 18.8025 33.2391C18.8597 33.2585 18.9182 33.2743 18.9775 33.2863L19.289 32.3064C18.1234 31.9031 17.0218 31.3344 16.0181 30.6176C13.743 28.9797 11.7654 25.765 11.9352 23.3132C12.0402 21.7645 12.5652 20.2455 13.4928 18.7703C13.415 18.0507 13.3723 17.3277 13.365 16.6039C13.365 15.7481 13.645 14.8189 14.1823 13.7986C14.278 13.6174 14.4202 13.4649 14.5942 13.3567C14.7683 13.2484 14.9679 13.1884 15.1728 13.1827C16.1143 13.1528 17.0553 13.2529 17.9694 13.4802C18.7657 13.6814 19.6075 14.0349 20.4983 14.5389C21.8318 14.2624 23.1234 14.1224 24.3764 14.1224C25.6312 14.1224 26.9368 14.2624 28.2948 14.5406C29.4534 13.8914 30.4719 13.4504 31.3609 13.2194C32.516 12.9202 33.5555 13.0094 34.4113 13.5379C34.5292 13.6109 34.6329 13.7046 34.7176 13.8144C35.2426 14.4934 35.5331 15.3946 35.6276 16.5059C35.7011 17.3528 35.6749 18.1946 35.5488 19.0293C36.3066 20.1685 36.8001 21.6245 37.0434 23.3868C37.4389 26.2637 36.1246 29.2264 34.0368 30.9326C33.0638 31.7271 31.7267 32.3501 30.0221 32.8226C30.1306 33.2006 30.2076 33.5768 30.2531 33.9531C30.3301 34.5726 30.3844 36.2351 30.4212 39.0105C32.3497 38.006 33.846 37.0155 34.9101 36.0443C36.7214 34.3941 38.0864 32.0526 38.9755 29.3332C39.7193 27.0582 39.8628 25.1385 39.4953 23.0228C39.0455 20.4503 38.398 18.3521 37.4232 16.6686C36.2821 14.6981 34.4621 12.8362 32.285 11.4747C30.2024 10.1692 26.8248 9.29597 24.1647 9.29597C21.3716 9.29597 18.2459 10.2007 15.8746 11.8737C13.568 13.5012 11.6569 15.9511 10.5491 18.3538C9.67235 20.2578 9.31184 22.286 9.31184 25.2802C9.31184 27.7057 10.1939 30.6526 11.2334 32.4971C12.0542 33.9531 13.2197 35.3321 14.9331 36.83C15.7958 37.586 17.0156 38.3403 18.5907 39.0858V38.3455C16.4819 37.8555 14.8053 36.8335 13.603 35.2796ZM12.9782 30.1661C12.9783 30.1632 12.9783 30.1603 12.9782 30.1574V30.1661ZM15.4371 33.8796C16.4346 35.1728 17.9064 35.9656 19.9172 36.2596C20.1906 36.2994 20.4405 36.4363 20.6214 36.6451C20.8023 36.8539 20.9021 37.1208 20.9025 37.397V40.8497C20.9015 41.0392 20.8539 41.2255 20.7638 41.3922C20.6738 41.559 20.5441 41.701 20.3863 41.8058C20.2284 41.9106 20.0472 41.9749 19.8585 41.9931C19.6699 42.0113 19.4797 41.9829 19.3047 41.9102C16.7234 40.8497 14.7598 39.7403 13.4052 38.5555C11.5047 36.893 10.1729 35.3146 9.21559 33.6206C7.99404 31.4489 7 28.1257 7 25.2785C7 21.9798 7.41652 19.6348 8.44731 17.3983C9.71435 14.6474 11.8757 11.8789 14.5375 10.0012C17.3149 8.04123 20.9078 7 24.1612 7C27.2413 7 31.0442 7.98348 33.5153 9.53046C36.0074 11.0914 38.0934 13.2247 39.4235 15.5224C40.5593 17.4806 41.2803 19.8151 41.7703 22.6308C42.2044 25.1175 42.0329 27.4152 41.1736 30.0419C40.169 33.1096 38.6062 35.7906 36.4729 37.7365C34.9293 39.1435 32.6997 40.5207 29.7754 41.8892C29.6005 41.9719 29.4076 42.0093 29.2145 41.998C29.0214 41.9868 28.8342 41.9272 28.6701 41.8248C28.5061 41.7224 28.3703 41.5804 28.2754 41.4118C28.1804 41.2433 28.1294 41.0536 28.1268 40.8602C28.0918 37.0995 28.0341 34.8508 27.9571 34.2313C27.8764 33.6306 27.701 33.0464 27.4373 32.5006C27.3639 32.3439 27.327 32.1726 27.3293 31.9996C27.3315 31.8266 27.373 31.6563 27.4504 31.5016C27.5279 31.3469 27.6393 31.2117 27.7765 31.1062C27.9136 31.0007 28.0729 30.9276 28.2423 30.8924C30.2444 30.4671 31.6864 29.8774 32.565 29.1599C34.0613 27.9367 35.0326 25.7475 34.7508 23.7C34.5268 22.0795 34.0735 20.8545 33.4138 20.0111C33.3121 19.8816 33.2396 19.7317 33.2012 19.5716C33.1629 19.4115 33.1596 19.245 33.1915 19.0836C33.349 18.2961 33.3928 17.5033 33.3228 16.7001C33.2738 16.1296 33.1618 15.6991 33.0025 15.4016C32.7487 15.3176 32.4057 15.3211 31.942 15.4419C31.1894 15.6361 30.2269 16.0719 29.0719 16.7456C28.8175 16.8948 28.516 16.9417 28.2283 16.8768C26.9646 16.5827 25.6721 16.4296 24.3747 16.4201C23.1619 16.4201 21.8896 16.5706 20.5613 16.8751C20.2672 16.9425 19.9584 16.893 19.7002 16.7369C18.8427 16.2189 18.0727 15.8759 17.4007 15.7079C16.9281 15.5889 16.4381 15.5154 15.9358 15.4874C15.7591 15.9266 15.6733 16.2994 15.6733 16.6039C15.6733 17.2023 15.7258 17.9793 15.8308 18.9278C15.8605 19.1971 15.7935 19.4681 15.6418 19.6926C14.7878 20.9595 14.3258 22.2143 14.24 23.4707C14.1315 25.0195 15.6856 27.5429 17.3726 28.7574C18.4139 29.5082 19.6337 30.0699 21.0355 30.4409C21.1859 30.4802 21.3267 30.5496 21.4495 30.645C21.5722 30.7403 21.6743 30.8596 21.7496 30.9956C21.8248 31.1315 21.8717 31.2814 21.8874 31.436C21.903 31.5906 21.8871 31.7468 21.8406 31.8951L20.9603 34.6723C20.9077 34.8378 20.8183 34.9892 20.6989 35.1153C20.5795 35.2414 20.4331 35.3388 20.2708 35.4003C19.569 35.6663 18.8182 35.6663 18.0657 35.4178C17.0646 35.0853 15.8886 34.2856 15.1658 33.4211C14.9651 33.1827 14.7586 32.9493 14.5463 32.7211C14.7843 33.0361 15.0748 33.4141 15.4353 33.8796H15.4371Z"/>
</mask>
<path d="M13.603 35.2796C12.1679 33.4246 11.7427 32.8191 11.4154 32.2259L11.3472 32.0981C11.2744 31.9672 11.2032 31.8353 11.1337 31.7026C11.0434 31.5318 10.9616 31.3566 10.8886 31.1776C10.5841 30.4216 10.5264 29.7549 11.0112 29.1389C11.8599 28.0539 13.239 28.3602 14.401 29.3542C15.1501 29.9929 16.2666 31.1391 16.9474 31.9546C17.3937 32.4884 18.2074 33.0414 18.8025 33.2391C18.8597 33.2585 18.9182 33.2743 18.9775 33.2863L19.289 32.3064C18.1234 31.9031 17.0218 31.3344 16.0181 30.6176C13.743 28.9797 11.7654 25.765 11.9352 23.3132C12.0402 21.7645 12.5652 20.2455 13.4928 18.7703C13.415 18.0507 13.3723 17.3277 13.365 16.6039C13.365 15.7481 13.645 14.8189 14.1823 13.7986C14.278 13.6174 14.4202 13.4649 14.5942 13.3567C14.7683 13.2484 14.9679 13.1884 15.1728 13.1827C16.1143 13.1528 17.0553 13.2529 17.9694 13.4802C18.7657 13.6814 19.6075 14.0349 20.4983 14.5389C21.8318 14.2624 23.1234 14.1224 24.3764 14.1224C25.6312 14.1224 26.9368 14.2624 28.2948 14.5406C29.4534 13.8914 30.4719 13.4504 31.3609 13.2194C32.516 12.9202 33.5555 13.0094 34.4113 13.5379C34.5292 13.6109 34.6329 13.7046 34.7176 13.8144C35.2426 14.4934 35.5331 15.3946 35.6276 16.5059C35.7011 17.3528 35.6749 18.1946 35.5488 19.0293C36.3066 20.1685 36.8001 21.6245 37.0434 23.3868C37.4389 26.2637 36.1246 29.2264 34.0368 30.9326C33.0638 31.7271 31.7267 32.3501 30.0221 32.8226C30.1306 33.2006 30.2076 33.5768 30.2531 33.9531C30.3301 34.5726 30.3844 36.2351 30.4212 39.0105C32.3497 38.006 33.846 37.0155 34.9101 36.0443C36.7214 34.3941 38.0864 32.0526 38.9755 29.3332C39.7193 27.0582 39.8628 25.1385 39.4953 23.0228C39.0455 20.4503 38.398 18.3521 37.4232 16.6686C36.2821 14.6981 34.4621 12.8362 32.285 11.4747C30.2024 10.1692 26.8248 9.29597 24.1647 9.29597C21.3716 9.29597 18.2459 10.2007 15.8746 11.8737C13.568 13.5012 11.6569 15.9511 10.5491 18.3538C9.67235 20.2578 9.31184 22.286 9.31184 25.2802C9.31184 27.7057 10.1939 30.6526 11.2334 32.4971C12.0542 33.9531 13.2197 35.3321 14.9331 36.83C15.7958 37.586 17.0156 38.3403 18.5907 39.0858V38.3455C16.4819 37.8555 14.8053 36.8335 13.603 35.2796ZM12.9782 30.1661C12.9783 30.1632 12.9783 30.1603 12.9782 30.1574V30.1661ZM15.4371 33.8796C16.4346 35.1728 17.9064 35.9656 19.9172 36.2596C20.1906 36.2994 20.4405 36.4363 20.6214 36.6451C20.8023 36.8539 20.9021 37.1208 20.9025 37.397V40.8497C20.9015 41.0392 20.8539 41.2255 20.7638 41.3922C20.6738 41.559 20.5441 41.701 20.3863 41.8058C20.2284 41.9106 20.0472 41.9749 19.8585 41.9931C19.6699 42.0113 19.4797 41.9829 19.3047 41.9102C16.7234 40.8497 14.7598 39.7403 13.4052 38.5555C11.5047 36.893 10.1729 35.3146 9.21559 33.6206C7.99404 31.4489 7 28.1257 7 25.2785C7 21.9798 7.41652 19.6348 8.44731 17.3983C9.71435 14.6474 11.8757 11.8789 14.5375 10.0012C17.3149 8.04123 20.9078 7 24.1612 7C27.2413 7 31.0442 7.98348 33.5153 9.53046C36.0074 11.0914 38.0934 13.2247 39.4235 15.5224C40.5593 17.4806 41.2803 19.8151 41.7703 22.6308C42.2044 25.1175 42.0329 27.4152 41.1736 30.0419C40.169 33.1096 38.6062 35.7906 36.4729 37.7365C34.9293 39.1435 32.6997 40.5207 29.7754 41.8892C29.6005 41.9719 29.4076 42.0093 29.2145 41.998C29.0214 41.9868 28.8342 41.9272 28.6701 41.8248C28.5061 41.7224 28.3703 41.5804 28.2754 41.4118C28.1804 41.2433 28.1294 41.0536 28.1268 40.8602C28.0918 37.0995 28.0341 34.8508 27.9571 34.2313C27.8764 33.6306 27.701 33.0464 27.4373 32.5006C27.3639 32.3439 27.327 32.1726 27.3293 31.9996C27.3315 31.8266 27.373 31.6563 27.4504 31.5016C27.5279 31.3469 27.6393 31.2117 27.7765 31.1062C27.9136 31.0007 28.0729 30.9276 28.2423 30.8924C30.2444 30.4671 31.6864 29.8774 32.565 29.1599C34.0613 27.9367 35.0326 25.7475 34.7508 23.7C34.5268 22.0795 34.0735 20.8545 33.4138 20.0111C33.3121 19.8816 33.2396 19.7317 33.2012 19.5716C33.1629 19.4115 33.1596 19.245 33.1915 19.0836C33.349 18.2961 33.3928 17.5033 33.3228 16.7001C33.2738 16.1296 33.1618 15.6991 33.0025 15.4016C32.7487 15.3176 32.4057 15.3211 31.942 15.4419C31.1894 15.6361 30.2269 16.0719 29.0719 16.7456C28.8175 16.8948 28.516 16.9417 28.2283 16.8768C26.9646 16.5827 25.6721 16.4296 24.3747 16.4201C23.1619 16.4201 21.8896 16.5706 20.5613 16.8751C20.2672 16.9425 19.9584 16.893 19.7002 16.7369C18.8427 16.2189 18.0727 15.8759 17.4007 15.7079C16.9281 15.5889 16.4381 15.5154 15.9358 15.4874C15.7591 15.9266 15.6733 16.2994 15.6733 16.6039C15.6733 17.2023 15.7258 17.9793 15.8308 18.9278C15.8605 19.1971 15.7935 19.4681 15.6418 19.6926C14.7878 20.9595 14.3258 22.2143 14.24 23.4707C14.1315 25.0195 15.6856 27.5429 17.3726 28.7574C18.4139 29.5082 19.6337 30.0699 21.0355 30.4409C21.1859 30.4802 21.3267 30.5496 21.4495 30.645C21.5722 30.7403 21.6743 30.8596 21.7496 30.9956C21.8248 31.1315 21.8717 31.2814 21.8874 31.436C21.903 31.5906 21.8871 31.7468 21.8406 31.8951L20.9603 34.6723C20.9077 34.8378 20.8183 34.9892 20.6989 35.1153C20.5795 35.2414 20.4331 35.3388 20.2708 35.4003C19.569 35.6663 18.8182 35.6663 18.0657 35.4178C17.0646 35.0853 15.8886 34.2856 15.1658 33.4211C14.9651 33.1827 14.7586 32.9493 14.5463 32.7211C14.7843 33.0361 15.0748 33.4141 15.4353 33.8796H15.4371Z" fill="white" stroke="black" stroke-width="1.4" mask="url(#path-1-inside-1_14_51)"/>
</svg>
